:SAMPLES-PER-SECOND 30
:FRAME-RANGE 1-668
:FULLY-SPECIFIED
:DEGREES
355
root  43.6024 39.8212 4.0868 -177.133 -35.3316 179.003
RightUpLeg  -5.5924 -21.3214 -4.9107
RightLeg  14.1972 -16.5053 -1.37279
RightFoot  -11.0963 -0.0924323 7.91965
RightToes  -1.33073e-015 0 -3.6325e-017
Spine  2.17037 2.02563 6.61747
Spine1  6.18448 4.18058 -7.97567
HEad  -6.74285 52.2656 -7.83609
LeftShoulder1  2.05286 -1.30397 -36.5942
LeftArm  -37.2893 -15.1197 -10.0242
LeftForeArm  13.6134 -32.5331 -6.41173
LeftHand  -0.528035 1.69878 16.5269
RightShoulder  11.6147 18.6711 45.7361
RightArm  3.04336 10.5959 6.78319
RightForeArm  15.6367 14.6345 9.76865
RightHand  -0.538297 3.25903 -7.45827
LeftUpLeg  0.0846344 11.4358 10.3947
LeftLeg  4.20878 5.28623 -1.83472
LeftFoot  -3.47559 0.836239 -11.829
LeftToes  -2.73175e-012 1.00346e-010 -4.28452e-011
356
root  43.9516 39.6806 3.49732 -177.586 -33.1564 -179.82
RightUpLeg  -6.12816 -19.6353 -2.95233
RightLeg  15.0665 -16.237 -1.16837
RightFoot  -11.4204 -0.07308 6.55942
RightToes  -1.33073e-015 0 -3.6325e-017
Spine  2.4064 2.10752 7.15697
Spine1  5.76157 4.19683 -7.47183
HEad  -8.19483 53.2414 -9.22231
LeftShoulder1  1.94406 -1.15829 -35.6197
LeftArm  -35.5133 -14.045 -8.93783
LeftForeArm  5.35901 -26.3303 -5.37342
LeftHand  -0.454265 1.55014 13.6643
RightShoulder  11.5447 18.6563 45.4816
RightArm  5.60092 10.078 7.38782
RightForeArm  15.1903 13.8459 10.5659
RightHand  -0.516513 3.38572 -7.07164
LeftUpLeg  -0.250012 12.5115 12.2289
LeftLeg  6.47742 6.05609 -0.721913
LeftFoot  -4.4625 0.831184 -13.3378
LeftToes  -2.73175e-012 1.00346e-010 -4.28452e-011
357
root  44.3443 39.4897 2.88655 -178.374 -31.2731 -178.391
RightUpLeg  -6.55218 -16.3568 -0.472057
RightLeg  16.5794 -17.7738 -1.95112
RightFoot  -12.5359 -0.0271576 5.5545
RightToes  -1.33073e-015 0 -3.6325e-017
Spine  3.09921 1.89788 8.17744
Spine1  5.15648 4.01082 -7.086
HEad  -9.15346 53.8843 -10.114
LeftShoulder1  1.82421 -1.03612 -34.1281
LeftArm  -35.4581 -12.9924 -7.27716
LeftForeArm  -1.43198 -20.614 -5.62483
LeftHand  -0.325639 2.20243 11.6681
RightShoulder  11.6103 18.6509 45.7619
RightArm  6.82121 10.0382 7.88187
RightForeArm  16.8734 12.1593 11.7719
RightHand  -0.502294 3.46063 -6.83072
LeftUpLeg  -1.14269 14.189 14.3763
LeftLeg  10.2734 5.92426 0.863065
LeftFoot  -5.53452 0.805878 -15.1645
LeftToes  -2.73175e-012 1.00346e-010 -4.28452e-011
358
root  44.7654 39.2872 2.25068 -179.113 -29.6574 -177.261
RightUpLeg  -6.49614 -13.5997 1.63353
RightLeg  17.8945 -18.8453 -2.44234
RightFoot  -13.9589 0.0170372 4.8878
RightToes  -1.33073e-015 0 -3.6325e-017
Spine  3.6312 1.70178 8.50586
Spine1  5.02445 3.71195 -5.95937
HEad  -9.69837 53.6559 -10.7081
LeftShoulder1  1.68952 -0.873597 -32.5533
LeftArm  -41.5136 -12.2065 -5.30586
LeftForeArm  -2.34649 -14.477 -7.76157
LeftHand  -0.13174 3.66891 7.97669
RightShoulder  11.6748 18.6909 45.9389
RightArm  7.44168 10.0415 8.39215
RightForeArm  18.8029 10.2282 12.9557
RightHand  -0.476417 3.31794 -6.58903
LeftUpLeg  -2.96065 13.7167 16.4481
LeftLeg  16.0413 7.52006 2.75503
LeftFoot  -5.53144 0.965542 -18.2441
LeftToes  -2.73175e-012 1.00346e-010 -4.28452e-011
359
root  45.1535 39.0536 1.63755 -179.568 -28.4096 -176.557
RightUpLeg  -6.41489 -11.9353 3.01553
RightLeg  19.394 -19.2713 -2.47711
RightFoot  -15.711 0.0757345 4.77511
RightToes  -1.33073e-015 0 -3.6325e-017
Spine  4.37906 1.52789 8.9743
Spine1  4.48825 3.51439 -4.96014
HEad  -8.50892 51.8054 -10.0726
LeftShoulder1  1.5665 -0.747892 -30.7936
LeftArm  -46.0166 -11.7177 -3.96852
LeftForeArm  -6.17329 -9.19712 -7.84889
LeftHand  -0.0481034 4.56323 3.76703
RightShoulder  11.6391 18.4221 46.3787
RightArm  7.1168 9.66866 8.6334
RightForeArm  21.1245 8.24519 13.9069
RightHand  -0.446955 3.48771 -6.08976
LeftUpLeg  -6.16088 10.4887 17.9291
LeftLeg  24.0425 11.1243 5.69815
LeftFoot  -3.72138 1.40014 -20.4987
LeftToes  -2.73175e-012 1.00346e-010 -4.28452e-011
360
root  45.4549 38.8237 1.03526 -179.792 -27.4507 -176.177
RightUpLeg  -6.26688 -10.6658 3.89152
RightLeg  20.8482 -19.5532 -2.32874
RightFoot  -17.4569 0.126098 4.57372
RightToes  -1.33073e-015 0 -3.6325e-017
Spine  5.02704 1.37732 9.95762
Spine1  3.93789 3.47087 -4.4551
HEad  -6.25289 48.4037 -8.6765
LeftShoulder1  1.45426 -0.616645 -29.2197
LeftArm  -46.0523 -11.6476 -3.08633
LeftForeArm  -11.9997 -5.18051 -6.9511
LeftHand  -0.0302129 5.81861 0.311988
RightShoulder  11.4694 17.9078 46.8208
RightArm  6.58146 8.79878 8.83096
RightForeArm  22.3988 6.65391 14.5298
RightHand  -0.425433 3.55086 -5.77198
LeftUpLeg  -10.5251 6.90615 18.5029
LeftLeg  33.2163 14.3536 10.2393
LeftFoot  1.42274 1.92725 -17.1988
LeftToes  -2.73175e-012 1.00346e-010 -4.28452e-011
361
root  45.6703 38.5843 0.421124 179.984 -26.0103 -175.978
RightUpLeg  -6.09689 -9.27151 4.84727
RightLeg  22.5226 -19.5864 -2.91587
RightFoot  -19.1973 0.17886 4.49811
RightToes  -1.33073e-015 0 -3.6325e-017
Spine  5.67188 1.47512 11.2648
Spine1  3.46358 3.77378 -4.32004
HEad  -4.02168 44.2505 -7.41161
LeftShoulder1  1.34763 -0.442548 -28.0464
LeftArm  -45.4608 -11.4066 -2.13543
LeftForeArm  -17.3851 -2.23487 -6.40268
LeftHand  -0.105889 7.66062 -3.04756
RightShoulder  11.2233 17.2844 47.2084
RightArm  6.81406 7.59209 8.9932
RightForeArm  21.7372 5.83196 14.9166
RightHand  -0.401448 3.47323 -5.5038
LeftUpLeg  -14.672 5.31078 18.3673
LeftLeg  40.9046 14.0187 13.0173
LeftFoot  7.96901 1.17728 -7.20003
LeftToes  -2.73175e-012 1.00346e-010 -4.28452e-011
362
root  45.8672 38.5085 -0.287716 -179.866 -24.299 -176.547
RightUpLeg  -5.12289 -8.11048 5.15361
RightLeg  22.6674 -19.1492 -3.12184
RightFoot  -20.266 0.206458 4.40411
RightToes  -1.33073e-015 0 -3.6325e-017
Spine  6.12489 1.66871 11.4385
Spine1  3.10628 4.08952 -4.53758
HEad  -2.27559 40.1758 -6.74345
LeftShoulder1  1.25154 -0.237651 -27.3259
LeftArm  -45.2986 -10.2447 -1.10063
LeftForeArm  -22.6304 -0.386172 -5.75404
LeftHand  -0.24913 9.42647 -5.39547
RightShoulder  11.0663 16.7477 47.8007
RightArm  6.72602 6.29681 9.14346
RightForeArm  21.1466 5.02795 15.2454
RightHand  -0.369065 3.46309 -5.08541
LeftUpLeg  -18.025 5.35493 16.8928
LeftLeg  45.8146 7.72723 8.81509
LeftFoot  5.7158 1.2696 -8.68701
LeftToes  -2.73175e-012 1.00346e-010 -4.28452e-011
363
root  46.006 38.4915 -1.05174 -179.309 -22.7295 -177.518
RightUpLeg  -3.97096 -7.29009 4.89543
RightLeg  22.1254 -18.3506 -2.86516
RightFoot  -21.0806 0.20496 4.08157
RightToes  -1.33073e-015 0 -3.6325e-017
Spine  6.35606 1.80171 11.1341
Spine1  2.44947 4.21474 -4.94326
HEad  -0.57959 36.4088 -6.0389
LeftShoulder1  1.14148 0.066693 -27.0746
LeftArm  -45.5386 -8.31983 -0.00521403
LeftForeArm  -26.7305 0.495396 -5.01442
LeftHand  -0.382299 11.1839 -6.14937
RightShoulder  10.7773 15.9104 48.5803
RightArm  5.92905 5.32749 9.52651
RightForeArm  21.7354 3.49289 15.644
RightHand  -0.353811 3.40911 -4.91199
LeftUpLeg  -21.33 5.80224 14.0547
LeftLeg  48.9571 4.48872 5.91957
LeftFoot  3.82505 1.20253 -9.19386
LeftToes  -2.73175e-012 1.00346e-010 -4.28452e-011
364
root  46.1091 38.5461 -1.8775 -178.442 -21.3173 -178.716
RightUpLeg  -2.42038 -6.77061 4.22927
RightLeg  20.4204 -17.5556 -2.12841
RightFoot  -21.5124 0.193775 3.81481
RightToes  -1.33073e-015 0 -3.6325e-017
Spine  6.35794 2.01248 10.3839
Spine1  1.56959 4.26474 -5.47438
HEad  1.20917 32.9853 -5.49852
LeftShoulder1  1.02062 0.421443 -26.9676
LeftArm  -45.5778 -5.85298 0.377621
LeftForeArm  -28.3065 0.222898 -4.60831
LeftHand  -0.355315 12.2335 -4.6858
RightShoulder  10.4261 14.9832 49.3685
RightArm  5.43776 4.04672 9.82808
RightForeArm  22.3729 2.04737 15.9372
RightHand  -0.340551 3.5356 -4.67848
LeftUpLeg  -24.4481 6.39638 10.2618
LeftLeg  49.8064 4.67036 6.32329
LeftFoot  1.91325 1.0051 -8.7397
LeftToes  -2.73175e-012 1.00346e-010 -4.28452e-011
365
root  46.2023 38.6824 -2.73984 -177.404 -19.7149 179.875
RightUpLeg  -0.419198 -6.77745 3.19914
RightLeg  17.5119 -16.0489 -0.987167
RightFoot  -21.3136 0.1494 3.36719
RightToes  -1.33073e-015 0 -3.6325e-017
Spine  6.13881 2.44584 9.36102
Spine1  0.877294 4.52446 -6.359
HEad  2.03616 30.0726 -5.4775
LeftShoulder1  0.901622 0.781356 -26.9694
LeftArm  -45.5676 -2.97682 -0.383368
LeftForeArm  -27.1438 -1.21168 -4.58519
LeftHand  -0.218421 12.1505 -2.49922
RightShoulder  9.9188 13.9049 49.8845
RightArm  5.93285 2.27305 10.3728
RightForeArm  21.5822 1.63104 16.0876
RightHand  -0.312781 3.66758 -4.26343
LeftUpLeg  -26.7544 7.7281 5.9014
LeftLeg  47.4155 5.1145 6.34003
LeftFoot  0.456729 0.885026 -8.58254
LeftToes  -2.73175e-012 1.00346e-010 -4.28452e-011
366
root  46.2526 38.7947 -3.63191 -176.518 -18.0071 178.63
RightUpLeg  1.72319 -6.95333 2.13781
RightLeg  14.6145 -14.2152 -0.0109556
RightFoot  -21.0296 0.113587 3.021
RightToes  -1.33073e-015 0 -3.6325e-017
Spine  5.93571 2.98416 8.45781
Spine1  0.449986 4.92239 -7.16592
HEad  2.19465 27.8476 -5.98487
LeftShoulder1  0.768816 1.22836 -27.6525
LeftArm  -45.2214 -0.198812 -1.69961
LeftForeArm  -22.9046 -3.29749 -5.06892
LeftHand  -0.0118311 11.09 0.952902
RightShoulder  9.44368 12.858 50.5367
RightArm  6.80725 0.292754 10.5557
RightForeArm  20.2317 1.88111 16.1399
RightHand  -0.271873 3.62589 -3.75409
LeftUpLeg  -28.2724 9.2246 1.44249
LeftLeg  42.4823 5.39 5.64303
LeftFoot  -0.377828 0.881167 -9.14581
LeftToes  -2.73175e-012 1.00346e-010 -4.28452e-011
